<mxfile host="app.diagrams.net" modified="2022-11-13T11:59:14.601Z" agent="5.0 (Macintosh; Intel Mac OS X 10_15_7) AppleWebKit/537.36 (KHTML, like Gecko) Chrome/107.0.0.0 Safari/537.36" etag="_96al9zyZqVCFK57MmK9" version="20.5.3" type="github">
  <diagram id="3eUIYci0AJJtG6zLOFo5" name="第 1 页">
    <mxGraphModel dx="3792" dy="1373" grid="1" gridSize="10" guides="1" tooltips="1" connect="1" arrows="1" fold="1" page="1" pageScale="1" pageWidth="827" pageHeight="1169" math="0" shadow="0">
      <root>
        <mxCell id="0" />
        <mxCell id="1" parent="0" />
        <mxCell id="D2EjemDmIjkB8TL4z5pd-24" style="edgeStyle=none;rounded=0;orthogonalLoop=1;jettySize=auto;html=1;exitX=1;exitY=0.5;exitDx=0;exitDy=0;entryX=0;entryY=0.5;entryDx=0;entryDy=0;fontSize=18;" edge="1" parent="1" source="D2EjemDmIjkB8TL4z5pd-1" target="D2EjemDmIjkB8TL4z5pd-23">
          <mxGeometry relative="1" as="geometry" />
        </mxCell>
        <mxCell id="D2EjemDmIjkB8TL4z5pd-1" value="&lt;font style=&quot;font-size: 18px;&quot;&gt;Worker&lt;/font&gt;" style="rounded=1;whiteSpace=wrap;html=1;" vertex="1" parent="1">
          <mxGeometry x="320" y="130" width="110" height="60" as="geometry" />
        </mxCell>
        <mxCell id="D2EjemDmIjkB8TL4z5pd-27" style="edgeStyle=none;rounded=0;orthogonalLoop=1;jettySize=auto;html=1;exitX=1;exitY=0.5;exitDx=0;exitDy=0;entryX=0;entryY=0.5;entryDx=0;entryDy=0;fontSize=18;" edge="1" parent="1" source="D2EjemDmIjkB8TL4z5pd-2" target="D2EjemDmIjkB8TL4z5pd-23">
          <mxGeometry relative="1" as="geometry" />
        </mxCell>
        <mxCell id="D2EjemDmIjkB8TL4z5pd-2" value="&lt;font style=&quot;font-size: 18px;&quot;&gt;Worker&lt;/font&gt;" style="rounded=1;whiteSpace=wrap;html=1;" vertex="1" parent="1">
          <mxGeometry x="320" y="220" width="110" height="60" as="geometry" />
        </mxCell>
        <mxCell id="D2EjemDmIjkB8TL4z5pd-28" style="edgeStyle=none;rounded=0;orthogonalLoop=1;jettySize=auto;html=1;exitX=1;exitY=0.5;exitDx=0;exitDy=0;entryX=0;entryY=0.5;entryDx=0;entryDy=0;fontSize=18;" edge="1" parent="1" source="D2EjemDmIjkB8TL4z5pd-3" target="D2EjemDmIjkB8TL4z5pd-23">
          <mxGeometry relative="1" as="geometry" />
        </mxCell>
        <mxCell id="D2EjemDmIjkB8TL4z5pd-3" value="&lt;font style=&quot;font-size: 18px;&quot;&gt;Worker&lt;/font&gt;" style="rounded=1;whiteSpace=wrap;html=1;" vertex="1" parent="1">
          <mxGeometry x="320" y="310" width="110" height="60" as="geometry" />
        </mxCell>
        <mxCell id="D2EjemDmIjkB8TL4z5pd-19" style="edgeStyle=none;rounded=0;orthogonalLoop=1;jettySize=auto;html=1;exitX=1;exitY=0.5;exitDx=0;exitDy=0;entryX=0;entryY=0.5;entryDx=0;entryDy=0;fontSize=18;" edge="1" parent="1" source="D2EjemDmIjkB8TL4z5pd-4" target="D2EjemDmIjkB8TL4z5pd-1">
          <mxGeometry relative="1" as="geometry" />
        </mxCell>
        <mxCell id="D2EjemDmIjkB8TL4z5pd-20" style="edgeStyle=none;rounded=0;orthogonalLoop=1;jettySize=auto;html=1;exitX=1;exitY=0.5;exitDx=0;exitDy=0;entryX=0;entryY=0.5;entryDx=0;entryDy=0;fontSize=18;" edge="1" parent="1" source="D2EjemDmIjkB8TL4z5pd-4" target="D2EjemDmIjkB8TL4z5pd-2">
          <mxGeometry relative="1" as="geometry" />
        </mxCell>
        <mxCell id="D2EjemDmIjkB8TL4z5pd-21" style="edgeStyle=none;rounded=0;orthogonalLoop=1;jettySize=auto;html=1;exitX=1;exitY=0.5;exitDx=0;exitDy=0;entryX=0;entryY=0.5;entryDx=0;entryDy=0;fontSize=18;" edge="1" parent="1" source="D2EjemDmIjkB8TL4z5pd-4" target="D2EjemDmIjkB8TL4z5pd-3">
          <mxGeometry relative="1" as="geometry" />
        </mxCell>
        <mxCell id="D2EjemDmIjkB8TL4z5pd-4" value="&lt;font style=&quot;font-size: 18px;&quot;&gt;Acceptor&lt;/font&gt;" style="rounded=1;whiteSpace=wrap;html=1;" vertex="1" parent="1">
          <mxGeometry x="160" y="220" width="110" height="60" as="geometry" />
        </mxCell>
        <mxCell id="D2EjemDmIjkB8TL4z5pd-15" style="rounded=0;orthogonalLoop=1;jettySize=auto;html=1;exitX=1;exitY=0.5;exitDx=0;exitDy=0;entryX=0;entryY=0.5;entryDx=0;entryDy=0;fontSize=18;" edge="1" parent="1" source="D2EjemDmIjkB8TL4z5pd-7" target="D2EjemDmIjkB8TL4z5pd-4">
          <mxGeometry relative="1" as="geometry" />
        </mxCell>
        <mxCell id="D2EjemDmIjkB8TL4z5pd-7" value="Device" style="rounded=0;whiteSpace=wrap;html=1;fontSize=18;" vertex="1" parent="1">
          <mxGeometry x="20" y="150" width="60" height="20" as="geometry" />
        </mxCell>
        <mxCell id="D2EjemDmIjkB8TL4z5pd-16" style="edgeStyle=none;rounded=0;orthogonalLoop=1;jettySize=auto;html=1;exitX=1;exitY=0.5;exitDx=0;exitDy=0;entryX=0;entryY=0.5;entryDx=0;entryDy=0;fontSize=18;" edge="1" parent="1" source="D2EjemDmIjkB8TL4z5pd-9" target="D2EjemDmIjkB8TL4z5pd-4">
          <mxGeometry relative="1" as="geometry" />
        </mxCell>
        <mxCell id="D2EjemDmIjkB8TL4z5pd-9" value="Device" style="rounded=0;whiteSpace=wrap;html=1;fontSize=18;" vertex="1" parent="1">
          <mxGeometry x="20" y="230" width="60" height="20" as="geometry" />
        </mxCell>
        <mxCell id="D2EjemDmIjkB8TL4z5pd-17" style="edgeStyle=none;rounded=0;orthogonalLoop=1;jettySize=auto;html=1;exitX=1;exitY=0.5;exitDx=0;exitDy=0;entryX=0;entryY=0.5;entryDx=0;entryDy=0;fontSize=18;" edge="1" parent="1" source="D2EjemDmIjkB8TL4z5pd-10" target="D2EjemDmIjkB8TL4z5pd-4">
          <mxGeometry relative="1" as="geometry" />
        </mxCell>
        <mxCell id="D2EjemDmIjkB8TL4z5pd-10" value="Device" style="rounded=0;whiteSpace=wrap;html=1;fontSize=18;" vertex="1" parent="1">
          <mxGeometry x="20" y="300" width="60" height="20" as="geometry" />
        </mxCell>
        <mxCell id="D2EjemDmIjkB8TL4z5pd-18" style="edgeStyle=none;rounded=0;orthogonalLoop=1;jettySize=auto;html=1;exitX=1;exitY=0.5;exitDx=0;exitDy=0;entryX=0;entryY=0.5;entryDx=0;entryDy=0;fontSize=18;" edge="1" parent="1" source="D2EjemDmIjkB8TL4z5pd-12" target="D2EjemDmIjkB8TL4z5pd-4">
          <mxGeometry relative="1" as="geometry" />
        </mxCell>
        <mxCell id="D2EjemDmIjkB8TL4z5pd-12" value="Device" style="rounded=0;whiteSpace=wrap;html=1;fontSize=18;" vertex="1" parent="1">
          <mxGeometry x="20" y="370" width="60" height="20" as="geometry" />
        </mxCell>
        <mxCell id="D2EjemDmIjkB8TL4z5pd-30" style="edgeStyle=none;rounded=0;orthogonalLoop=1;jettySize=auto;html=1;exitX=1;exitY=0.5;exitDx=0;exitDy=0;fontSize=18;" edge="1" parent="1" source="D2EjemDmIjkB8TL4z5pd-23" target="D2EjemDmIjkB8TL4z5pd-29">
          <mxGeometry relative="1" as="geometry" />
        </mxCell>
        <mxCell id="D2EjemDmIjkB8TL4z5pd-23" value="" style="ellipse;whiteSpace=wrap;html=1;aspect=fixed;fontSize=18;" vertex="1" parent="1">
          <mxGeometry x="500" y="200" width="100" height="100" as="geometry" />
        </mxCell>
        <mxCell id="D2EjemDmIjkB8TL4z5pd-22" value="" style="ellipse;whiteSpace=wrap;html=1;aspect=fixed;fontSize=18;" vertex="1" parent="1">
          <mxGeometry x="510" y="210" width="80" height="80" as="geometry" />
        </mxCell>
        <mxCell id="D2EjemDmIjkB8TL4z5pd-32" style="edgeStyle=none;rounded=0;orthogonalLoop=1;jettySize=auto;html=1;exitX=1;exitY=0.5;exitDx=0;exitDy=0;entryX=0;entryY=0.5;entryDx=0;entryDy=0;fontSize=18;" edge="1" parent="1" source="D2EjemDmIjkB8TL4z5pd-29" target="D2EjemDmIjkB8TL4z5pd-31">
          <mxGeometry relative="1" as="geometry" />
        </mxCell>
        <mxCell id="D2EjemDmIjkB8TL4z5pd-29" value="&lt;font style=&quot;font-size: 18px;&quot;&gt;InsertThread&lt;/font&gt;" style="rounded=1;whiteSpace=wrap;html=1;" vertex="1" parent="1">
          <mxGeometry x="650" y="220" width="110" height="60" as="geometry" />
        </mxCell>
        <mxCell id="D2EjemDmIjkB8TL4z5pd-31" value="" style="shape=datastore;whiteSpace=wrap;html=1;fontSize=18;" vertex="1" parent="1">
          <mxGeometry x="810" y="220" width="60" height="60" as="geometry" />
        </mxCell>
        <mxCell id="D2EjemDmIjkB8TL4z5pd-61" value="" style="rounded=1;whiteSpace=wrap;html=1;fontSize=18;" vertex="1" parent="1">
          <mxGeometry x="340" y="770" width="460" height="240" as="geometry" />
        </mxCell>
        <mxCell id="D2EjemDmIjkB8TL4z5pd-62" style="edgeStyle=none;rounded=0;orthogonalLoop=1;jettySize=auto;html=1;exitX=1;exitY=0.5;exitDx=0;exitDy=0;entryX=0;entryY=0.5;entryDx=0;entryDy=0;fontSize=18;" edge="1" parent="1" source="D2EjemDmIjkB8TL4z5pd-63" target="D2EjemDmIjkB8TL4z5pd-67">
          <mxGeometry relative="1" as="geometry" />
        </mxCell>
        <mxCell id="D2EjemDmIjkB8TL4z5pd-63" value="&lt;font style=&quot;font-size: 18px;&quot;&gt;Worker&lt;/font&gt;" style="rounded=1;whiteSpace=wrap;html=1;" vertex="1" parent="1">
          <mxGeometry x="359" y="789" width="90" height="40" as="geometry" />
        </mxCell>
        <mxCell id="D2EjemDmIjkB8TL4z5pd-64" style="edgeStyle=none;rounded=0;orthogonalLoop=1;jettySize=auto;html=1;exitX=1;exitY=0.5;exitDx=0;exitDy=0;entryX=0;entryY=0.5;entryDx=0;entryDy=0;fontSize=18;exitPerimeter=0;" edge="1" parent="1" source="D2EjemDmIjkB8TL4z5pd-70" target="D2EjemDmIjkB8TL4z5pd-67">
          <mxGeometry relative="1" as="geometry">
            <mxPoint x="460" y="889" as="sourcePoint" />
          </mxGeometry>
        </mxCell>
        <mxCell id="D2EjemDmIjkB8TL4z5pd-65" style="edgeStyle=none;rounded=0;orthogonalLoop=1;jettySize=auto;html=1;exitX=1;exitY=0.5;exitDx=0;exitDy=0;entryX=0;entryY=0.5;entryDx=0;entryDy=0;fontSize=18;" edge="1" parent="1" source="D2EjemDmIjkB8TL4z5pd-71" target="D2EjemDmIjkB8TL4z5pd-67">
          <mxGeometry relative="1" as="geometry">
            <mxPoint x="460" y="979" as="sourcePoint" />
          </mxGeometry>
        </mxCell>
        <mxCell id="D2EjemDmIjkB8TL4z5pd-66" style="edgeStyle=none;rounded=0;orthogonalLoop=1;jettySize=auto;html=1;exitX=1;exitY=0.5;exitDx=0;exitDy=0;fontSize=18;" edge="1" parent="1" source="D2EjemDmIjkB8TL4z5pd-67" target="D2EjemDmIjkB8TL4z5pd-69">
          <mxGeometry relative="1" as="geometry" />
        </mxCell>
        <mxCell id="D2EjemDmIjkB8TL4z5pd-67" value="" style="ellipse;whiteSpace=wrap;html=1;aspect=fixed;fontSize=18;" vertex="1" parent="1">
          <mxGeometry x="530" y="839" width="100" height="100" as="geometry" />
        </mxCell>
        <mxCell id="D2EjemDmIjkB8TL4z5pd-68" value="" style="ellipse;whiteSpace=wrap;html=1;aspect=fixed;fontSize=18;" vertex="1" parent="1">
          <mxGeometry x="540" y="849" width="80" height="80" as="geometry" />
        </mxCell>
        <mxCell id="D2EjemDmIjkB8TL4z5pd-69" value="&lt;font style=&quot;font-size: 18px;&quot;&gt;InsertThread&lt;/font&gt;" style="rounded=1;whiteSpace=wrap;html=1;" vertex="1" parent="1">
          <mxGeometry x="680" y="859" width="110" height="60" as="geometry" />
        </mxCell>
        <mxCell id="D2EjemDmIjkB8TL4z5pd-70" value="&lt;font style=&quot;font-size: 18px;&quot;&gt;Worker&lt;/font&gt;" style="rounded=1;whiteSpace=wrap;html=1;" vertex="1" parent="1">
          <mxGeometry x="360" y="870" width="90" height="40" as="geometry" />
        </mxCell>
        <mxCell id="D2EjemDmIjkB8TL4z5pd-71" value="&lt;font style=&quot;font-size: 18px;&quot;&gt;Worker&lt;/font&gt;" style="rounded=1;whiteSpace=wrap;html=1;" vertex="1" parent="1">
          <mxGeometry x="359" y="951" width="90" height="40" as="geometry" />
        </mxCell>
        <mxCell id="D2EjemDmIjkB8TL4z5pd-72" value="Server2" style="text;html=1;strokeColor=none;fillColor=none;align=center;verticalAlign=middle;whiteSpace=wrap;rounded=0;fontSize=18;" vertex="1" parent="1">
          <mxGeometry x="560" y="789" width="60" height="30" as="geometry" />
        </mxCell>
        <mxCell id="D2EjemDmIjkB8TL4z5pd-73" value="" style="rounded=1;whiteSpace=wrap;html=1;fontSize=18;" vertex="1" parent="1">
          <mxGeometry x="340" y="1080" width="460" height="240" as="geometry" />
        </mxCell>
        <mxCell id="D2EjemDmIjkB8TL4z5pd-74" style="edgeStyle=none;rounded=0;orthogonalLoop=1;jettySize=auto;html=1;exitX=1;exitY=0.5;exitDx=0;exitDy=0;entryX=0;entryY=0.5;entryDx=0;entryDy=0;fontSize=18;" edge="1" parent="1" source="D2EjemDmIjkB8TL4z5pd-75" target="D2EjemDmIjkB8TL4z5pd-79">
          <mxGeometry relative="1" as="geometry" />
        </mxCell>
        <mxCell id="D2EjemDmIjkB8TL4z5pd-75" value="&lt;font style=&quot;font-size: 18px;&quot;&gt;Worker&lt;/font&gt;" style="rounded=1;whiteSpace=wrap;html=1;" vertex="1" parent="1">
          <mxGeometry x="359" y="1099" width="90" height="40" as="geometry" />
        </mxCell>
        <mxCell id="D2EjemDmIjkB8TL4z5pd-76" style="edgeStyle=none;rounded=0;orthogonalLoop=1;jettySize=auto;html=1;exitX=1;exitY=0.5;exitDx=0;exitDy=0;entryX=0;entryY=0.5;entryDx=0;entryDy=0;fontSize=18;exitPerimeter=0;" edge="1" parent="1" source="D2EjemDmIjkB8TL4z5pd-82" target="D2EjemDmIjkB8TL4z5pd-79">
          <mxGeometry relative="1" as="geometry">
            <mxPoint x="460" y="1199" as="sourcePoint" />
          </mxGeometry>
        </mxCell>
        <mxCell id="D2EjemDmIjkB8TL4z5pd-77" style="edgeStyle=none;rounded=0;orthogonalLoop=1;jettySize=auto;html=1;exitX=1;exitY=0.5;exitDx=0;exitDy=0;entryX=0;entryY=0.5;entryDx=0;entryDy=0;fontSize=18;" edge="1" parent="1" source="D2EjemDmIjkB8TL4z5pd-83" target="D2EjemDmIjkB8TL4z5pd-79">
          <mxGeometry relative="1" as="geometry">
            <mxPoint x="460" y="1289" as="sourcePoint" />
          </mxGeometry>
        </mxCell>
        <mxCell id="D2EjemDmIjkB8TL4z5pd-78" style="edgeStyle=none;rounded=0;orthogonalLoop=1;jettySize=auto;html=1;exitX=1;exitY=0.5;exitDx=0;exitDy=0;fontSize=18;" edge="1" parent="1" source="D2EjemDmIjkB8TL4z5pd-79" target="D2EjemDmIjkB8TL4z5pd-81">
          <mxGeometry relative="1" as="geometry" />
        </mxCell>
        <mxCell id="D2EjemDmIjkB8TL4z5pd-79" value="" style="ellipse;whiteSpace=wrap;html=1;aspect=fixed;fontSize=18;" vertex="1" parent="1">
          <mxGeometry x="530" y="1149" width="100" height="100" as="geometry" />
        </mxCell>
        <mxCell id="D2EjemDmIjkB8TL4z5pd-80" value="" style="ellipse;whiteSpace=wrap;html=1;aspect=fixed;fontSize=18;" vertex="1" parent="1">
          <mxGeometry x="540" y="1159" width="80" height="80" as="geometry" />
        </mxCell>
        <mxCell id="D2EjemDmIjkB8TL4z5pd-81" value="&lt;font style=&quot;font-size: 18px;&quot;&gt;InsertThread&lt;/font&gt;" style="rounded=1;whiteSpace=wrap;html=1;" vertex="1" parent="1">
          <mxGeometry x="680" y="1169" width="110" height="60" as="geometry" />
        </mxCell>
        <mxCell id="D2EjemDmIjkB8TL4z5pd-82" value="&lt;font style=&quot;font-size: 18px;&quot;&gt;Worker&lt;/font&gt;" style="rounded=1;whiteSpace=wrap;html=1;" vertex="1" parent="1">
          <mxGeometry x="360" y="1180" width="90" height="40" as="geometry" />
        </mxCell>
        <mxCell id="D2EjemDmIjkB8TL4z5pd-83" value="&lt;font style=&quot;font-size: 18px;&quot;&gt;Worker&lt;/font&gt;" style="rounded=1;whiteSpace=wrap;html=1;" vertex="1" parent="1">
          <mxGeometry x="359" y="1261" width="90" height="40" as="geometry" />
        </mxCell>
        <mxCell id="D2EjemDmIjkB8TL4z5pd-84" value="Server3" style="text;html=1;strokeColor=none;fillColor=none;align=center;verticalAlign=middle;whiteSpace=wrap;rounded=0;fontSize=18;" vertex="1" parent="1">
          <mxGeometry x="560" y="1099" width="60" height="30" as="geometry" />
        </mxCell>
        <mxCell id="D2EjemDmIjkB8TL4z5pd-98" value="" style="rounded=1;whiteSpace=wrap;html=1;fontSize=18;" vertex="1" parent="1">
          <mxGeometry x="-450" y="770" width="490" height="550" as="geometry" />
        </mxCell>
        <mxCell id="D2EjemDmIjkB8TL4z5pd-100" value="&lt;font style=&quot;font-size: 18px;&quot;&gt;Worker&lt;/font&gt;" style="rounded=1;whiteSpace=wrap;html=1;" vertex="1" parent="1">
          <mxGeometry x="-428" y="939" width="90" height="40" as="geometry" />
        </mxCell>
        <mxCell id="D2EjemDmIjkB8TL4z5pd-107" value="&lt;font style=&quot;font-size: 18px;&quot;&gt;Worker&lt;/font&gt;" style="rounded=1;whiteSpace=wrap;html=1;" vertex="1" parent="1">
          <mxGeometry x="-428" y="1070" width="90" height="40" as="geometry" />
        </mxCell>
        <mxCell id="D2EjemDmIjkB8TL4z5pd-108" value="&lt;font style=&quot;font-size: 18px;&quot;&gt;Worker&lt;/font&gt;" style="rounded=1;whiteSpace=wrap;html=1;" vertex="1" parent="1">
          <mxGeometry x="-430" y="1199" width="90" height="40" as="geometry" />
        </mxCell>
        <mxCell id="D2EjemDmIjkB8TL4z5pd-109" value="&lt;font style=&quot;font-size: 24px;&quot;&gt;Load Balancer&lt;/font&gt;" style="text;html=1;strokeColor=none;fillColor=none;align=center;verticalAlign=middle;whiteSpace=wrap;rounded=0;fontSize=18;" vertex="1" parent="1">
          <mxGeometry x="-230" y="810" width="60" height="40" as="geometry" />
        </mxCell>
        <mxCell id="D2EjemDmIjkB8TL4z5pd-111" value="&lt;font style=&quot;font-size: 18px;&quot;&gt;Worker&lt;/font&gt;" style="rounded=1;whiteSpace=wrap;html=1;" vertex="1" parent="1">
          <mxGeometry x="-429" y="819" width="90" height="40" as="geometry" />
        </mxCell>
      </root>
    </mxGraphModel>
  </diagram>
</mxfile>
